<?xml version="1.0" encoding="UTF-8"?><!DOCTYPE svg PUBLIC "-//W3C//DTD SVG 1.1//EN" "http://www.w3.org/Graphics/SVG/1.1/DTD/svg11.dtd"><svg xmlns="http://www.w3.org/2000/svg"><symbol id="address-icon" viewBox="0 0 54.757 54.757"><path d="M40.94 5.617A19.052 19.052 0 0 0 27.38 0a19.05 19.05 0 0 0-13.56 5.617c-6.703 6.702-7.536 19.312-1.804 26.952L27.38 54.757 42.721 32.6c5.755-7.671 4.922-20.281-1.781-26.983zM27.557 26c-3.859 0-7-3.141-7-7s3.141-7 7-7 7 3.141 7 7-3.141 7-7 7z"/></symbol><symbol id="airplane-icon" viewBox="0 0 31.27 31.27"><path d="M27.338 3.713l-5.316 22.166-8.651-5.492L23.07 8.533 9.456 17.781l-4.45-2.882L27.338 3.713M30.285 0L.984 14.678l8.174 5.128 3.749 11.464 4.789-5.779 5.616 3.586L30.285 0z"/></symbol><symbol id="clock-icon" viewBox="0 0 510 510"><path d="M255 0C114.75 0 0 114.75 0 255s114.75 255 255 255 255-114.75 255-255S395.25 0 255 0zm0 459c-112.2 0-204-91.8-204-204S142.8 51 255 51s204 91.8 204 204-91.8 204-204 204z"/><path d="M267.75 127.5H229.5v153l132.6 81.6 20.4-33.15-114.75-68.85z"/></symbol><symbol id="icon-bag" viewBox="0 0 482.88 482.88"><path d="M448 96.748h-96c-9.61-61.105-66.936-102.85-128.041-93.239-48.02 7.552-85.687 45.219-93.239 93.239h-96L0 480.748h482.88l-34.88-384zm-413.12 352l29.12-320h65.44v32h32v-51.2c0-44.183 35.817-80 80-80 38.576 1.454 71.064 29.3 78.4 67.2h-110.4v32h112v32h32v-32h65.44l29.12 320H34.88z"/></symbol><symbol id="phone-icon" viewBox="0 0 27.442 27.442"><path d="M19.494 0H7.948a1.997 1.997 0 0 0-1.997 1.999v23.446c0 1.102.892 1.997 1.997 1.997h11.546a1.998 1.998 0 0 0 1.997-1.997V1.999A1.999 1.999 0 0 0 19.494 0zm-8.622 1.214h5.7c.144 0 .261.215.261.481s-.117.482-.261.482h-5.7c-.145 0-.26-.216-.26-.482s.115-.481.26-.481zm2.85 24.255a1.275 1.275 0 1 1 0-2.55 1.275 1.275 0 0 1 0 2.55zm6.273-4.369H7.448V3.373h12.547V21.1z"/></symbol><symbol id="plus-icon" viewBox="0 0 400 400"><path d="M199.995 0C89.716 0 0 89.72 0 200c0 110.279 89.716 200 199.995 200C310.277 400 400 310.279 400 200 400 89.72 310.277 0 199.995 0zm0 373.77C104.182 373.77 26.23 295.816 26.23 200c0-95.817 77.951-173.77 173.765-173.77 95.817 0 173.772 77.953 173.772 173.77.002 95.816-77.955 173.77-173.772 173.77z"/><path d="M279.478 186.884h-66.363V120.52c0-7.243-5.872-13.115-13.115-13.115s-13.115 5.873-13.115 13.115v66.368h-66.361c-7.242 0-13.115 5.873-13.115 13.115 0 7.243 5.873 13.115 13.115 13.115h66.358v66.362c0 7.242 5.872 13.114 13.115 13.114 7.242 0 13.115-5.872 13.115-13.114v-66.365h66.367c7.241 0 13.114-5.873 13.114-13.115 0-7.243-5.873-13.116-13.115-13.116z"/></symbol><symbol id="refresh-icon" viewBox="0 0 492.883 492.883"><path d="M122.941 374.241c-20.1-18.1-34.6-39.8-44.1-63.1-25.2-61.8-13.4-135.3 35.8-186l45.4 45.4c2.5 2.5 7 .7 7.6-3l24.8-162.3c.4-2.7-1.9-5-4.6-4.6l-162.4 24.8c-3.7.6-5.5 5.1-3 7.6l45.5 45.5c-75.1 76.8-87.9 192-38.6 282 14.8 27.1 35.3 51.9 61.4 72.7 44.4 35.3 99 52.2 153.2 51.1l10.2-66.7c-46.7 4-94.7-10.4-131.2-43.4zM424.941 414.341c75.1-76.8 87.9-192 38.6-282-14.8-27.1-35.3-51.9-61.4-72.7-44.4-35.3-99-52.2-153.2-51.1l-10.2 66.7c46.6-4 94.7 10.4 131.2 43.4 20.1 18.1 34.6 39.8 44.1 63.1 25.2 61.8 13.4 135.3-35.8 186l-45.4-45.4c-2.5-2.5-7-.7-7.6 3l-24.8 162.3c-.4 2.7 1.9 5 4.6 4.6l162.4-24.8c3.7-.6 5.4-5.1 3-7.6l-45.5-45.5z"/></symbol><symbol id="search-icon" viewBox="0 0 56.966 56.966"><path d="M55.146 51.887L41.588 37.786A22.926 22.926 0 0 0 46.984 23c0-12.682-10.318-23-23-23s-23 10.318-23 23 10.318 23 23 23c4.761 0 9.298-1.436 13.177-4.162l13.661 14.208c.571.593 1.339.92 2.162.92.779 0 1.518-.297 2.079-.837a3.004 3.004 0 0 0 .083-4.242zM23.984 6c9.374 0 17 7.626 17 17s-7.626 17-17 17-17-7.626-17-17 7.626-17 17-17z"/></symbol><symbol id="shield-icon" viewBox="0 0 31.694 31.694"><path d="M23.112 9.35c-4.473 2.742-7.697 6.205-9.006 7.744l-3.361-2.633c-.089-.064-1.934 1.574-1.885 1.625l6.121 6.223a.225.225 0 0 0 .174.074c.012 0 .031 0 .047-.004a.244.244 0 0 0 .178-.152c.986-2.521 4.242-7.799 8.4-11.627.074-.07.1-.18.059-.275-.001-.001-.665-1.013-.727-.975z"/><path d="M27.126 3.842c-9.268 0-10.836-3.518-10.85-3.551A.466.466 0 0 0 15.85 0h-.008a.475.475 0 0 0-.428.283c-.011.037-1.613 3.559-10.846 3.559a.461.461 0 0 0-.462.461v15.764c0 6.453 11.084 11.383 11.553 11.59a.45.45 0 0 0 .188.037c.061 0 .127-.01.186-.037.473-.207 11.555-5.137 11.555-11.59V4.303a.465.465 0 0 0-.462-.461zM25.038 19.15c0 5.049-8.678 8.912-9.047 9.072a.324.324 0 0 1-.145.031.325.325 0 0 1-.146-.031c-.365-.16-9.046-4.023-9.046-9.072V6.811c0-.199.161-.363.362-.363 7.229 0 8.482-2.756 8.494-2.783a.367.367 0 0 1 .334-.223h.006a.36.36 0 0 1 .332.229c.012.025 1.24 2.777 8.494 2.777.201 0 .361.164.361.363l.001 12.339z"/></symbol><symbol id="sprite_svg"/><symbol id="support-icon" viewBox="0 0 512.015 512.015"><path d="M462.504 468.219l-33.938 33.938c-6.062 6.03-23.812 9.843-24.344 9.843-107.438.906-210.875-41.281-286.891-117.312C41.098 318.469-1.137 214.625.035 106.875c0-.063 3.891-17.313 9.938-23.313l33.938-33.969c12.453-12.438 36.297-18.063 53-12.5l7.156 2.406c16.703 5.563 34.156 24 38.781 40.969l17.094 62.719c4.641 17-1.594 41.188-14.031 53.625L123.223 219.5c22.25 82.469 86.922 147.125 169.343 169.406l22.688-22.688c12.438-12.438 36.688-18.655 53.688-14.03l62.719 17.125c16.938 4.594 35.375 22.03 40.969 38.75l2.375 7.155c5.561 16.72-.064 40.563-12.501 53.001zM210.692 190.438v-26.5L234.91 142c40.905-36.563 60.78-57.594 61.344-79.5 0-15.25-9.219-27.375-30.813-27.375-16.155 0-30.25 8.063-40.062 15.563l-12.374-31.375C227.129 8.625 249.004 0 274.379 0c42.344 0 65.656 24.75 65.656 58.75 0 31.438-22.75 56.5-49.813 80.688l-17.312 14.375v.594h70.595v36.031H210.692zm237.343 0V145.75h-82.969v-28.5L435.941 3.188h53.595v109.75h22.468v32.813h-22.469v44.688l-41.5-.001zm0-77.5v-41.5c0-11.25.562-22.75 1.438-34.875h-1.156c-6.03 12.125-10.938 23.063-17.28 34.875l-25.063 40.906v.594h42.061z"/></symbol></svg>