<svg xmlns="http://www.w3.org/2000/svg" width="512.015" height="512.015" viewBox="0 0 512.015 512.015"><path d="M462.504 468.219l-33.938 33.938c-6.062 6.03-23.812 9.843-24.344 9.843-107.438.906-210.875-41.281-286.891-117.312C41.098 318.469-1.137 214.625.035 106.875c0-.063 3.891-17.313 9.938-23.313l33.938-33.969c12.453-12.438 36.297-18.063 53-12.5l7.156 2.406c16.703 5.563 34.156 24 38.781 40.969l17.094 62.719c4.641 17-1.594 41.188-14.031 53.625L123.223 219.5c22.25 82.469 86.922 147.125 169.343 169.406l22.688-22.688c12.438-12.438 36.688-18.655 53.688-14.03l62.719 17.125c16.938 4.594 35.375 22.03 40.969 38.75l2.375 7.155c5.561 16.72-.064 40.563-12.501 53.001zM210.692 190.438v-26.5L234.91 142c40.905-36.563 60.78-57.594 61.344-79.5 0-15.25-9.219-27.375-30.813-27.375-16.155 0-30.25 8.063-40.062 15.563l-12.374-31.375C227.129 8.625 249.004 0 274.379 0c42.344 0 65.656 24.75 65.656 58.75 0 31.438-22.75 56.5-49.813 80.688l-17.312 14.375v.594h70.595v36.031H210.692zm237.343 0V145.75h-82.969v-28.5L435.941 3.188h53.595v109.75h22.468v32.813h-22.469v44.688l-41.5-.001zm0-77.5v-41.5c0-11.25.562-22.75 1.438-34.875h-1.156c-6.03 12.125-10.938 23.063-17.28 34.875l-25.063 40.906v.594h42.061z"/></svg>